# xmcd
#
# Track frame offsets:
#	150
#	18523
#	34694
#	54136
#	72857
#	92840
#	109813
#	123597
#	137281
#	157442
#
# Disc length: 2341 seconds
#
# Revision: 1
# Processed by: cddbd v1.5.1PL0 Copyright (c) Steve Scherf et al.
# Submitted via: audiograbber 1.83.01
#
DISCID=8309230a
DTITLE=Aaron Lordson - When the Movie is sad
DYEAR=1900
DGENRE=
TTITLE0=When the movie is sad
TTITLE1=This is my love
TTITLE2=I believe
TTITLE3=Kill me softly
TTITLE4=Never say goodbye
TTITLE5=Yes you are mine
TTITLE6=Begining
TTITLE7=Living from the street
TTITLE8=Keep busy
TTITLE9=I will always love you
EXTD=
EXTT0=
EXTT1=
EXTT2=
EXTT3=
EXTT4=
EXTT5=
EXTT6=
EXTT7=
EXTT8=
EXTT9=
PLAYORDER=
